<?xml version="1.0" encoding="UTF-8" standalone="no"?>
<!-- Created with Inkscape (http://www.inkscape.org/) -->

<svg
   xmlns:dc="http://purl.org/dc/elements/1.1/"
   xmlns:cc="http://creativecommons.org/ns#"
   xmlns:rdf="http://www.w3.org/1999/02/22-rdf-syntax-ns#"
   xmlns:svg="http://www.w3.org/2000/svg"
   xmlns="http://www.w3.org/2000/svg"
   xmlns:sodipodi="http://sodipodi.sourceforge.net/DTD/sodipodi-0.dtd"
   xmlns:inkscape="http://www.inkscape.org/namespaces/inkscape"
   width="512"
   height="512"
   viewBox="0 0 135.46666 135.46667"
   version="1.1"
   id="svg8"
   inkscape:version="0.92.0 r15299"
   sodipodi:docname="paint.svg"
   inkscape:export-filename="C:\Users\Sven\Documents\SvenFrankson\vr-demo\datas\textures\paint-icon.png"
   inkscape:export-xdpi="96"
   inkscape:export-ydpi="96">
  <defs
     id="defs2" />
  <sodipodi:namedview
     id="base"
     pagecolor="#ffffff"
     bordercolor="#666666"
     borderopacity="1.0"
     inkscape:pageopacity="0.0"
     inkscape:pageshadow="2"
     inkscape:zoom="1.4"
     inkscape:cx="194.42482"
     inkscape:cy="265.10705"
     inkscape:document-units="mm"
     inkscape:current-layer="layer1"
     showgrid="false"
     inkscape:pagecheckerboard="true"
     units="px"
     inkscape:window-width="1920"
     inkscape:window-height="1017"
     inkscape:window-x="-8"
     inkscape:window-y="161"
     inkscape:window-maximized="1" />
  <metadata
     id="metadata5">
    <rdf:RDF>
      <cc:Work
         rdf:about="">
        <dc:format>image/svg+xml</dc:format>
        <dc:type
           rdf:resource="http://purl.org/dc/dcmitype/StillImage" />
        <dc:title></dc:title>
      </cc:Work>
    </rdf:RDF>
  </metadata>
  <g
     inkscape:label="Calque 1"
     inkscape:groupmode="layer"
     id="layer1"
     transform="translate(0,-161.53332)">
    <rect
       style="fill:#ffffff;fill-opacity:0.49803922;stroke:none;stroke-width:0.53015;stroke-linejoin:round;stroke-miterlimit:4;stroke-dasharray:none;stroke-opacity:1"
       id="rect4494"
       width="135.46666"
       height="135.46666"
       x="0"
       y="161.53333"
       ry="0" />
    <text
       xml:space="preserve"
       style="font-style:normal;font-variant:normal;font-weight:normal;font-stretch:normal;font-size:27.46952057px;line-height:27.71279907px;font-family:Verdana;-inkscape-font-specification:Verdana;letter-spacing:0px;word-spacing:0px;fill:#c5ec07;fill-opacity:0.6653595;stroke:#000000;stroke-width:1.32291667;stroke-linecap:round;stroke-linejoin:round;stroke-miterlimit:4;stroke-dasharray:none;stroke-opacity:1;"
       x="17.037043"
       y="239.34096"
       id="text4578"><tspan
         sodipodi:role="line"
         id="tspan4576"
         x="17.037043"
         y="239.34096"
         style="font-style:normal;font-variant:normal;font-weight:bold;font-stretch:normal;font-size:27.71279907px;line-height:27.71279907px;font-family:Verdana;-inkscape-font-specification:'Verdana Bold';fill:#c5ec07;fill-opacity:0.6653595;stroke:#000000;stroke-width:1.32291667;stroke-linecap:round;stroke-linejoin:round;stroke-miterlimit:4;stroke-dasharray:none;stroke-opacity:1;">PAINT</tspan></text>
    <path
       style="fill:#c5ec07;fill-opacity:0.6653595;stroke:#000000;stroke-width:1.32291663;stroke-linejoin:round;stroke-miterlimit:4;stroke-dasharray:none;stroke-opacity:1"
       d="m 57.034876,210.41287 a 11.710357,11.710357 0 0 0 9.528031,-4.92745 H 47.499983 a 11.710357,11.710357 0 0 0 9.534893,4.92745 z m 25.148484,-1.79691 a 7.9306891,7.9306891 0 0 0 6.305078,-3.13054 H 75.883124 a 7.9306891,7.9306891 0 0 0 6.300236,3.13054 z m 7.743242,-6.26109 a 7.9306891,7.9306891 0 0 0 0.187639,-1.66978 7.9306891,7.9306891 0 0 0 -0.135585,-1.42606 H 74.386048 a 7.9306891,7.9306891 0 0 0 -0.133163,1.42606 7.9306891,7.9306891 0 0 0 0.182393,1.66978 z m -21.781069,0 a 11.710357,11.710357 0 0 0 0.579865,-3.09584 H 45.352422 a 11.710357,11.710357 0 0 0 0.564937,3.09584 z m 20.523685,-6.22638 a 7.9306891,7.9306891 0 0 0 -6.485858,-3.37429 7.9306891,7.9306891 0 0 0 -6.479401,3.37429 z m -20.220637,0 a 11.710357,11.710357 0 0 0 -1.17103,-3.09585 H 46.803902 a 11.710357,11.710357 0 0 0 -1.177889,3.09585 z m 4.708732,-5.3568 a 7.0437049,7.0437049 0 0 0 6.329291,-3.96544 H 66.831252 a 7.0437049,7.0437049 0 0 0 6.326061,3.96544 z m -8.418743,-0.8696 a 11.710357,11.710357 0 0 0 -7.703694,-2.91022 11.710357,11.710357 0 0 0 -7.711768,2.91022 z m 15.459851,-6.22639 a 7.0437049,7.0437049 0 0 0 -7.041108,-6.99147 7.0437049,7.0437049 0 0 0 -7.041914,6.99147 z"
       id="path5114"
       inkscape:connector-curvature="0" />
    <path
       style="fill:#c5ec07;fill-opacity:0.6653595;stroke:#000000;stroke-width:1.32291663;stroke-linejoin:round;stroke-miterlimit:4;stroke-dasharray:none;stroke-opacity:1"
       d="m 78.431795,248.12043 a 11.710357,11.710357 0 0 0 -9.528032,4.92745 h 19.062922 a 11.710357,11.710357 0 0 0 -9.53489,-4.92745 z m -25.148481,1.79691 a 7.9306891,7.9306891 0 0 0 -6.30508,3.13054 h 12.605312 a 7.9306891,7.9306891 0 0 0 -6.300232,-3.13054 z m -7.74325,6.26109 a 7.9306891,7.9306891 0 0 0 -0.18764,1.66978 7.9306891,7.9306891 0 0 0 0.13559,1.42606 h 15.592608 a 7.9306891,7.9306891 0 0 0 0.133162,-1.42606 7.9306891,7.9306891 0 0 0 -0.182393,-1.66978 z m 21.781074,0 a 11.710357,11.710357 0 0 0 -0.579865,3.09584 h 23.372972 a 11.710357,11.710357 0 0 0 -0.56493,-3.09584 z m -20.523684,6.22638 a 7.9306891,7.9306891 0 0 0 6.48586,3.37429 7.9306891,7.9306891 0 0 0 6.479397,-3.37429 z m 20.220635,0 a 11.710357,11.710357 0 0 0 1.171031,3.09585 h 20.473645 a 11.710357,11.710357 0 0 0 1.17789,-3.09585 z m -4.708731,5.3568 a 7.043705,7.043705 0 0 0 -6.329291,3.96544 h 12.655352 a 7.043705,7.043705 0 0 0 -6.326061,-3.96544 z m 8.418742,0.8696 a 11.710357,11.710357 0 0 0 7.703695,2.91022 11.710357,11.710357 0 0 0 7.71177,-2.91022 z m -15.45985,6.22639 a 7.043705,7.043705 0 0 0 7.041108,6.99147 7.043705,7.043705 0 0 0 7.041914,-6.99147 z"
       id="path5114-8"
       inkscape:connector-curvature="0" />
  </g>
</svg>
