<?xml version="1.0" encoding="UTF-8" standalone="no"?>
<!-- Created with Inkscape (http://www.inkscape.org/) -->

<svg
   xmlns:dc="http://purl.org/dc/elements/1.1/"
   xmlns:cc="http://creativecommons.org/ns#"
   xmlns:rdf="http://www.w3.org/1999/02/22-rdf-syntax-ns#"
   xmlns:svg="http://www.w3.org/2000/svg"
   xmlns="http://www.w3.org/2000/svg"
   xmlns:sodipodi="http://sodipodi.sourceforge.net/DTD/sodipodi-0.dtd"
   xmlns:inkscape="http://www.inkscape.org/namespaces/inkscape"
   width="256"
   height="256"
   viewBox="0 0 67.733332 67.733335"
   version="1.1"
   id="svg6349"
   inkscape:version="0.92.0 r15299"
   sodipodi:docname="paint-blue.svg"
   inkscape:export-filename="C:\Users\Sven\Documents\SvenFrankson\vr-demo\datas\textures\paint\blue.png"
   inkscape:export-xdpi="96"
   inkscape:export-ydpi="96">
  <defs
     id="defs6343" />
  <sodipodi:namedview
     id="base"
     pagecolor="#ffffff"
     bordercolor="#666666"
     borderopacity="1.0"
     inkscape:pageopacity="0"
     inkscape:pageshadow="2"
     inkscape:zoom="2.8"
     inkscape:cx="123.64605"
     inkscape:cy="122.77845"
     inkscape:document-units="mm"
     inkscape:current-layer="layer1"
     showgrid="false"
     units="px"
     inkscape:pagecheckerboard="true"
     inkscape:window-width="1920"
     inkscape:window-height="1017"
     inkscape:window-x="-8"
     inkscape:window-y="161"
     inkscape:window-maximized="1" />
  <metadata
     id="metadata6346">
    <rdf:RDF>
      <cc:Work
         rdf:about="">
        <dc:format>image/svg+xml</dc:format>
        <dc:type
           rdf:resource="http://purl.org/dc/dcmitype/StillImage" />
        <dc:title></dc:title>
      </cc:Work>
    </rdf:RDF>
  </metadata>
  <g
     inkscape:label="Calque 1"
     inkscape:groupmode="layer"
     id="layer1"
     transform="translate(0,-229.26665)">
    <rect
       style="fill:#ffffff;fill-opacity:0.49803922;stroke:none;stroke-width:1.32291663;stroke-linejoin:round;stroke-miterlimit:4;stroke-dasharray:none;stroke-opacity:1"
       id="rect6894"
       width="67.73333"
       height="67.73333"
       x="0"
       y="229.26665" />
    <path
       style="fill:#42b0f4;fill-opacity:1;stroke:#000000;stroke-width:5.00000006;stroke-linejoin:round;stroke-miterlimit:4;stroke-dasharray:none;stroke-opacity:1"
       d="M 117.32227 26.714844 A 42.32143 42.32143 0 0 0 75 69.035156 A 42.32143 42.32143 0 0 0 117.32227 111.35742 A 42.32143 42.32143 0 0 0 159.64258 69.035156 A 42.32143 42.32143 0 0 0 117.32227 26.714844 z M 190.71484 102.42773 A 29.285714 29.285714 0 0 0 161.42773 131.71484 A 29.285714 29.285714 0 0 0 190.71484 161 A 29.285714 29.285714 0 0 0 220 131.71484 A 29.285714 29.285714 0 0 0 190.71484 102.42773 z M 89.107422 121 A 56.249996 56.249996 0 0 0 32.857422 177.25 A 56.249996 56.249996 0 0 0 89.107422 233.5 A 56.249996 56.249996 0 0 0 145.35742 177.25 A 56.249996 56.249996 0 0 0 89.107422 121 z "
       transform="matrix(0.26458333,0,0,0.26458333,0,229.26665)"
       id="path7026"
       inkscape:export-filename="C:\Users\Sven\Documents\SvenFrankson\vr-demo\datas\textures\paint\red.png"
       inkscape:export-xdpi="96"
       inkscape:export-ydpi="96" />
  </g>
</svg>
